<svg width="30" height="31" viewBox="0 0 30 31" fill="none" xmlns="http://www.w3.org/2000/svg">
<rect y="0.5" width="30" height="30" rx="5" fill="#6B6B6B"/>
<path d="M15 5.54001C9.5 5.54001 5 10.03 5 15.56C5 20.56 8.66 24.71 13.44 25.46V18.46H10.9V15.56H13.44V13.35C13.44 10.84 14.93 9.46001 17.22 9.46001C18.31 9.46001 19.45 9.65001 19.45 9.65001V12.12H18.19C16.95 12.12 16.56 12.89 16.56 13.68V15.56H19.34L18.89 18.46H16.56V25.46C18.9164 25.0879 21.0622 23.8855 22.6099 22.0701C24.1576 20.2546 25.0054 17.9457 25 15.56C25 10.03 20.5 5.54001 15 5.54001Z" fill="#D3F842"/>
</svg>
