<svg width="30" height="31" viewBox="0 0 30 31" fill="none" xmlns="http://www.w3.org/2000/svg">
<rect y="0.5" width="30" height="30" rx="5" fill="#6B6B6B"/>
<path d="M10.8 5.5H19.2C22.4 5.5 25 8.1 25 11.3V19.7C25 21.2383 24.3889 22.7135 23.3012 23.8012C22.2135 24.8889 20.7383 25.5 19.2 25.5H10.8C7.6 25.5 5 22.9 5 19.7V11.3C5 9.76174 5.61107 8.28649 6.69878 7.19878C7.78649 6.11107 9.26174 5.5 10.8 5.5ZM10.6 7.5C9.64522 7.5 8.72955 7.87928 8.05442 8.55442C7.37928 9.22955 7 10.1452 7 11.1V19.9C7 21.89 8.61 23.5 10.6 23.5H19.4C20.3548 23.5 21.2705 23.1207 21.9456 22.4456C22.6207 21.7705 23 20.8548 23 19.9V11.1C23 9.11 21.39 7.5 19.4 7.5H10.6ZM20.25 9C20.5815 9 20.8995 9.1317 21.1339 9.36612C21.3683 9.60054 21.5 9.91848 21.5 10.25C21.5 10.5815 21.3683 10.8995 21.1339 11.1339C20.8995 11.3683 20.5815 11.5 20.25 11.5C19.9185 11.5 19.6005 11.3683 19.3661 11.1339C19.1317 10.8995 19 10.5815 19 10.25C19 9.91848 19.1317 9.60054 19.3661 9.36612C19.6005 9.1317 19.9185 9 20.25 9ZM15 10.5C16.3261 10.5 17.5979 11.0268 18.5355 11.9645C19.4732 12.9021 20 14.1739 20 15.5C20 16.8261 19.4732 18.0979 18.5355 19.0355C17.5979 19.9732 16.3261 20.5 15 20.5C13.6739 20.5 12.4021 19.9732 11.4645 19.0355C10.5268 18.0979 10 16.8261 10 15.5C10 14.1739 10.5268 12.9021 11.4645 11.9645C12.4021 11.0268 13.6739 10.5 15 10.5ZM15 12.5C14.2044 12.5 13.4413 12.8161 12.8787 13.3787C12.3161 13.9413 12 14.7044 12 15.5C12 16.2956 12.3161 17.0587 12.8787 17.6213C13.4413 18.1839 14.2044 18.5 15 18.5C15.7956 18.5 16.5587 18.1839 17.1213 17.6213C17.6839 17.0587 18 16.2956 18 15.5C18 14.7044 17.6839 13.9413 17.1213 13.3787C16.5587 12.8161 15.7956 12.5 15 12.5Z" fill="#D3F842"/>
</svg>
