<svg width="30" height="31" viewBox="0 0 30 31" fill="none" xmlns="http://www.w3.org/2000/svg">
<rect y="0.5" width="30" height="30" rx="5" fill="#6B6B6B"/>
<path d="M13 19.5L18.19 16.5L13 13.5V19.5ZM24.56 11.67C24.69 12.14 24.78 12.77 24.84 13.57C24.91 14.37 24.94 15.06 24.94 15.66L25 16.5C25 18.69 24.84 20.3 24.56 21.33C24.31 22.23 23.73 22.81 22.83 23.06C22.36 23.19 21.5 23.28 20.18 23.34C18.88 23.41 17.69 23.44 16.59 23.44L15 23.5C10.81 23.5 8.2 23.34 7.17 23.06C6.27 22.81 5.69 22.23 5.44 21.33C5.31 20.86 5.22 20.23 5.16 19.43C5.09 18.63 5.06 17.94 5.06 17.34L5 16.5C5 14.31 5.16 12.7 5.44 11.67C5.69 10.77 6.27 10.19 7.17 9.94C7.64 9.81 8.5 9.72 9.82 9.66C11.12 9.59 12.31 9.56 13.41 9.56L15 9.5C19.19 9.5 21.8 9.66 22.83 9.94C23.73 10.19 24.31 10.77 24.56 11.67Z" fill="#D3F842"/>
</svg>
